<svg xmlns="http://www.w3.org/2000/svg" viewBox="0 0 400 140"><path d="M24 55h356v6H24zm0 17h356v6H24z" fill="#bad80a"/><path d="M254.25 22h-108.5a7.71 7.71 0 00-7.75 7.63v66.74a7.71 7.71 0 007.75 7.63h108.5a7.71 7.71 0 007.75-7.63V29.63a7.71 7.71 0 00-7.75-7.63z" fill="#fff"/><path d="M262 29v21H138V29a7 7 0 016.89-7h110.22a7 7 0 016.89 7z" fill="#e5e5e5"/><path d="M154 22h-8.25a7.71 7.71 0 00-7.75 7.63v66.74a7.71 7.71 0 007.75 7.63h108.5a7.71 7.71 0 007.75-7.63V29.63a7.71 7.71 0 00-7.75-7.63H180" fill="none" stroke="#556a8a" stroke-miterlimit="10" stroke-width="2"/><path d="M226 120h-52l-6 4h64l-6-4zm-23 0h-6l1-16h4l1 16zm-27-28h48v4h-48zm2.15-34.33l19.85 20V32h4v45.65l19.74-20 2.17 2.35L200 83.85 176 60z" fill="#556a8a"/><path d="M169 53.29a1.6 1.6 0 001.74.64l3.19-1a1.71 1.71 0 00.84-2l-1-4a2.38 2.38 0 01.91-2.81c.38-.61 1.07-1 1.46-1.66A2.87 2.87 0 01179 42l4.28 1.37a1.94 1.94 0 001.72-.67l1.6-3.28c.19-.31 0-1.28-1-1.88l-3.7-2.29a2.09 2.09 0 01-1.1-2.38l-.29-.31a2.78 2.78 0 00.34-1.93c-.24-1 0-2.12 1.71-2.78l3.58-1.64a2 2 0 00.83-2l-1.28-3.39a1.28 1.28 0 00-1.68-.67h-.06l-4 1a2.45 2.45 0 01-2.85-.91c-.61-.38-1-1.07-1.66-1.46a4.11 4.11 0 01-.72-3l1.5-3.78a1.85 1.85 0 00-.78-2.2l-3.17-1.1a1.56 1.56 0 00-2 .47l-2 3.9a2.62 2.62 0 01-2.55 1.41 8 8 0 00-2.12 0l-.31-.19a2.71 2.71 0 01-2.5-1.49L159 8.69a1.6 1.6 0 00-1.74-.64l-3.39 1.28a1.28 1.28 0 00-.67 1.68v.06l.75 4.3c.36 1.49 0 2.12-.72 2.55-.38.61-1.07 1-1.46 1.66a2.7 2.7 0 01-3 .7l-4.09-1.67a2 2 0 00-1.83 1l-1.66 3.28a2.27 2.27 0 001 1.88l3.7 2.29c1.28.77 1.66 1.46 1.09 2.39a17.51 17.51 0 00.28 2.31c-.06.78-.14 1.61-1.83 2.27L141.71 36a1.6 1.6 0 00-.65 1.74l1.28 3.39a1.64 1.64 0 001.55 1l4.19-1.28c1.49-.36 2.12 0 2.55.72a23 23 0 011.78 2 2.3 2.3 0 01.89 2.7l-1.67 4.09a2 2 0 001 1.88l3 1.41a1.56 1.56 0 002-.47l2-3.9a2.55 2.55 0 012.55-1.41l2.43.22c1-.23 1.62.14 2.47 1.52l1.92 3.65M172.3 28a9 9 0 01-5.3 11.26A8.39 8.39 0 01155.69 34a8.62 8.62 0 015.11-11 8.74 8.74 0 0111.42 4.73l.08.2" fill="#2bc7f4"/></svg>