<svg xmlns="http://www.w3.org/2000/svg" viewBox="0 0 400 140"><defs><style>.cls-15,.cls-3{fill:#fff}.cls-16,.cls-4{fill:none}.cls-5{fill:#d1e55c}.cls-6{fill:#bad80a;fill-rule:evenodd}.cls-15,.cls-16{stroke:#556a8a;stroke-miterlimit:10;stroke-width:2px}.cls-10{fill:#556a8a}</style></defs><g id="ICONS"><path d="M97.81 69.85a28.34 28.34 0 0156-.89 19.29 19.29 0 0131 9.8 16.86 16.86 0 114 33.23H93.87A21.56 21.56 0 0177 90.92a21.08 21.08 0 0120.81-21.07z" fill="#d6f4fc"/><path d="M266.55 55.66H266c0-20.1-16.31-35.72-36.56-35.72a35.86 35.86 0 00-36 31.25 25.73 25.73 0 00-19.69-9.49 25.12 25.12 0 100 50.23h92.8a18.17 18.17 0 0018-18.42 17.7 17.7 0 00-18-17.86" fill="#55d2f6"/><path class="cls-3" d="M155.26 50.26a.71.71 0 01-.8-.8c0-.54.4-.94.81-.81a.71.71 0 01.8.8c.13.4-.27.81-.81.81"/><circle class="cls-4" cx="200.63" cy="101.33" r="20.67"/><circle class="cls-5" cx="153" cy="43.5" r="22.5"/><path class="cls-6" d="M137.09 27.59a22.5 22.5 0 0031.82 31.82z"/><path d="M253.41 47.86l-3.79-.54c-.27-.81-.27-1.62-.54-2.43l3.24-1.89a1 1 0 00.54-1.35l-1.08-2.16c0-.54-.54-.81-1.08-.81l-3.79 1.08a5.89 5.89 0 00-1.35-2.16l2.17-3.24a.82.82 0 000-1.08l-1.89-1.89a.82.82 0 00-1.08 0l-3.25 2.16c-.54-.54-1.35-.81-1.89-1.35l.81-3.79c.27-.27 0-.81-.54-1.08l-2.17-.81a1.19 1.19 0 00-1.35.27L234.46 30c-.81-.27-1.62-.27-2.71-.54l-.54-3.79a.86.86 0 00-.81-.81h-2.71a.86.86 0 00-.81.81l-.54 3.79c-.81.27-1.62.27-2.44.54l-1.9-3.23c-.27-.54-.81-.54-1.35-.54l-2.44 1.08c-.27 0-.54.54-.54 1.08l1.08 3.79a5.89 5.89 0 00-2.17 1.35l-3.25-2.16a.82.82 0 00-1.08 0l-1.89 1.89a.82.82 0 000 1.08l2.17 3.24c-.54.54-.81 1.35-1.35 1.89l-3.79-.81c-.27-.27-.81 0-1.08.54l-1.08 2.16c0 .54 0 1.08.54 1.35l3.23 1.9c-.27.81-.27 1.89-.54 2.7l-3.79.54a.86.86 0 00-.81.81v2.7a.72.72 0 00.81.81l3.79.54a7.89 7.89 0 00.54 2.43l-3.25 1.89a1 1 0 00-.54 1.35l1.08 2.43c0 .27.54.54 1.08.54l3.79-1.08a5.89 5.89 0 001.35 2.16l-2.17 3.24a1.21 1.21 0 000 1.35l1.89 1.62c.27.27.81.54 1.08.27l3.25-2.43a4.86 4.86 0 001.89 1.35l-.81 3.79c-.27.27 0 .81.54 1.08l2.17 1.08c.54 0 1.08 0 1.35-.54l1.93-3.24a8 8 0 002.71.54l.54 3.79a.86.86 0 00.81.81h2.71a.86.86 0 00.81-.81l.54-3.79a7.91 7.91 0 002.44-.54l1.89 3.24a1 1 0 001.35.54l2.44-1.08c.27 0 .54-.54.54-1.08l-1.08-3.79a5.89 5.89 0 002.17-1.35l3.25 2.43c.27.27.81 0 1.08-.27l1.89-1.62a1.21 1.21 0 000-1.35l-2.17-3.24a11.45 11.45 0 001.35-1.89l3.79 1.08a1.45 1.45 0 001.08-.81l1.08-2.16c0-.54 0-1.08-.54-1.35l-3.25-1.89c.27-.81.27-1.62.54-2.7l3.79-.54a.72.72 0 00.81-.81v-2.7a.86.86 0 00-.81-.81zm-8.93 6.22a1.25 1.25 0 01-1.89.81l-6.23-4.06c-.81-.27-.81-1.08 0-1.62l6.23-4.06a1.4 1.4 0 011.89.81A19.71 19.71 0 01245 50a16.56 16.56 0 01-.54 4.06zm-1.62-12.17a1.24 1.24 0 01-.86 1.89l-7.31 1.62c-.81.27-1.35-.27-1.08-1.08l1.62-7.3c.27-1.08 1.08-1.35 1.89-.81a17.88 17.88 0 013.25 2.43 17.86 17.86 0 012.44 3.24zM225 34.34a15.51 15.51 0 018.12 0 1.24 1.24 0 01.81 1.89l-4.06 6.49c-.54.81-1.35.81-1.62 0l-4.06-6.49a1.24 1.24 0 01.81-1.89zM233.11 50a4.06 4.06 0 01-8.11 0 4.07 4.07 0 018.12 0zm-12.19-14a1.25 1.25 0 011.89.81l1.62 7.3c.27.81-.27 1.35-1.35 1.35l-7-1.89c-1.08-.27-1.35-1.08-.81-1.89a9.76 9.76 0 012.44-3.24 17.88 17.88 0 013.21-2.44zm-7.58 17.85a16.56 16.56 0 01-.54-4.06 19.71 19.71 0 01.54-4.06 1.16 1.16 0 011.89-.54l6.5 3.79a1 1 0 010 1.89l-6.5 3.79c-.81.54-1.62.27-1.89-.81zm1.66 4.28a1.19 1.19 0 01.81-1.89l7.31-1.89c.81-.27 1.35.27 1.35 1.35l-1.92 7.3a1.4 1.4 0 01-1.89.81 17.88 17.88 0 01-3.25-2.43 44.823 44.823 0 01-2.44-3.24zm17.87 7.3a16.61 16.61 0 01-4.06.54 19.77 19.77 0 01-4.06-.54 1.4 1.4 0 01-.81-1.89l4.06-6.22c.54-.81 1.35-.81 1.62 0l4.06 6.22c.54.81.27 1.62-.81 1.89zm4.06-1.62c-.81.54-1.62.27-1.89-.81l-1.62-7.3c-.27-.81.27-1.35 1.35-1.08l7.23 1.62a1.4 1.4 0 01.81 1.89 17.86 17.86 0 01-2.44 3.24 28.06 28.06 0 01-3.52 2.43z" fill-rule="evenodd" fill="#fff" opacity=".3"/><path d="M70 86h32a24.07 24.07 0 0024-24V41a24.07 24.07 0 0124-24h6a24.07 24.07 0 0124 24v58a24.07 24.07 0 0024 24h7a24.07 24.07 0 0024-24V87a24.07 24.07 0 0124-24h78.83" stroke-dasharray="3 3" stroke="#556a8a" stroke-miterlimit="10" stroke-width="2" fill="none"/><path class="cls-10" d="M331.2 71.18l-1.36-1.46 7.22-6.72-7.22-6.71 1.36-1.47L340 63l-8.8 8.18z"/><circle cx="82.5" cy="87" r="22.5" fill="#80def9"/><path d="M66.59 71.09a22.5 22.5 0 0031.82 31.82z" fill-rule="evenodd" fill="#55d2f6"/><path d="M98.5 87.11c0 3.17-7.16 10.82-16 10.82s-16-7.65-16-10.82c0-3.47 7.16-10.11 16-10.11s16 6.94 16 10.11z" fill="#5558af"/><circle class="cls-3" cx="82.5" cy="88" r="7"/><circle cx="82.5" cy="88" r="5" fill="#2bc7f4"/><circle class="cls-3" cx="84" cy="84.5" r="2.5"/><path class="cls-4" d="M139.5 29h30v30h-30z"/><path class="cls-15" d="M150 30.5V35l-2.5 1.49L145 35v-4.5c-3 .68-3.75 3.21-3.75 5.25 0 2.33.75 4 3.75 4.7v15.69c0 1 1.54 2.14 2.5 2.14s2.5-1.13 2.5-2.23v-15.6a5 5 0 003.75-4.7A6.2 6.2 0 00150 30.5z"/><path class="cls-10" d="M163 46h-3V36l1-2-1.38-4.24h-1.24L157 34l1 2v10h-3v2h2c0 1-1.5 2-2 2v6a3.17 3.17 0 002.52 3h3a3.17 3.17 0 002.48-3v-6c-.5 0-2-1-2-2h2z"/><path class="cls-3" d="M157 50h1v7h-1zm3 0h1v7h-1z"/><circle class="cls-5" cx="208" cy="96.5" r="22.5"/><path class="cls-6" d="M192.09 80.59a22.5 22.5 0 0031.82 31.82z"/><circle class="cls-16" cx="208" cy="86.25" r="3.75"/><path class="cls-16" d="M202 96a6 6 0 0112 0"/><circle cx="201" cy="98.25" r="3.75" stroke="#556a8a" stroke-miterlimit="10" stroke-width="2" fill="#bad80a"/><path class="cls-16" d="M195 108a6 6 0 0112 0"/><circle cx="215" cy="98.25" r="3.75" stroke="#556a8a" stroke-miterlimit="10" stroke-width="2" fill="#d1e55c"/><path class="cls-16" d="M209 108a6 6 0 0112 0"/><path d="M259.91 106c-.76.25-1.57.48-2.41.71 5.06-21 15-17.21 15-17.21l1.66 1.5.06.2c.35 1.4 1.7 9.69-14.31 14.8z" fill="#ff9f2b"/><path d="M259.91 106c5-17.3 13.45-15 14.31-14.76.35 1.36 1.7 9.65-14.31 14.76z" fill="#ff8c00"/><path class="cls-10" d="M275.01 95.18l-7.07-7.07 5.65-1.42 2.66 2.67-1.24 5.82zm1.41-15.67l-19.09-.7-2.83-2.83 16.26-7.78 6.8 2.55-1.14 8.76zm8.08 5.77l.71 19.09 2.83 2.83 7.77-16.26-2.55-6.8-8.76 1.14z"/><path class="cls-3" d="M280.69 93.7h-.21l-.17-.15L270.24 83v-.25a41.74 41.74 0 0111.45-20.28c9.15-9.1 30.47-12.92 31.38-13.08l.7-.12-.12.7s-.37 2.22-1.14 5.45c-2.08 8.74-5.8 20.4-11.73 26.36-9.2 9.33-19.24 11.92-20.09 11.92z"/><path d="M312 56.69c-1.69 7.11-5.36 19.43-11.6 25.7-9.22 9.28-19.25 11.21-19.77 11.31L275 88.08s1.79-10.32 11.32-19.8c6.27-6.23 18.56-9.9 25.68-11.59z" fill="#e5e5e5"/><path d="M314 49a92 92 0 00-18.3 5.45l13.4 13.4A123.08 123.08 0 00314 49z" fill="#7779bd"/><path class="cls-16" d="M280.69 93.7h-.21l-.17-.15L270.24 83v-.25a41.74 41.74 0 0111.45-20.28c9.15-9.1 30.47-12.92 31.38-13.08l.7-.12-.12.7s-.37 2.22-1.14 5.45c-2.08 8.74-5.8 20.4-11.73 26.36-9.2 9.33-19.24 11.92-20.09 11.92z"/><circle class="cls-15" cx="290.5" cy="72.2" r="5"/></g></svg>