<svg id="ICONS" xmlns="http://www.w3.org/2000/svg" viewBox="0 0 400 140"><defs><style>.cls-2,.cls-5,.cls-6{fill:none}.cls-2{stroke:#2bc7f4}.cls-2,.cls-3,.cls-5,.cls-6{stroke-miterlimit:10;stroke-width:2px}.cls-3{fill:#fff}.cls-3,.cls-6{stroke:#556a8a}.cls-5{stroke:#fff}</style></defs><path d="M264 17h-98a4 4 0 00-4 4v74a4 4 0 004 4h65l18 18V99h15a4 4 0 004-4V21a4 4 0 00-4-4z" fill="#80def9"/><path class="cls-2" d="M264 17h-98a4 4 0 00-4 4v74a4 4 0 004 4h65l18 18V99h15a4 4 0 004-4V21a4 4 0 00-4-4z"/><path class="cls-3" d="M187.89 42h-72.12a5.79 5.79 0 00-5.77 5.79V100a6 6 0 005.77 6H123v15.7l15.85-15.7H195V47.79c0-3.19-3.94-5.79-7.11-5.79z"/><path d="M197.68 81h-40.36a4.32 4.32 0 00-4.32 4.29v30a4.78 4.78 0 004.41 4.71H162v11l11-11h24.68c2.38 0 4.32-2.36 4.32-4.71v-30a4.32 4.32 0 00-4.32-4.29z" fill="#bad80a"/><circle class="cls-5" cx="178.57" cy="96.37" r="7.25"/><path class="cls-5" d="M167 115.21a11.6 11.6 0 0123.19 0"/><path class="cls-2" d="M119.5 57h28m-27.98 8h57.6M119.5 75h58"/><path class="cls-3" d="M283.15 35h-45.3a4.84 4.84 0 00-4.85 4.8v33.6a4.68 4.68 0 004.85 4.6H243v13l12.65-13h27.5a4.68 4.68 0 004.85-4.6V39.8a4.84 4.84 0 00-4.85-4.8z"/><circle class="cls-6" cx="261.88" cy="51.2" r="8.05"/><path class="cls-6" d="M249 72.14a12.88 12.88 0 0125.77 0"/></svg>