<svg xmlns="http://www.w3.org/2000/svg" viewBox="0 0 400 140"><defs><style>.cls-11{stroke:#556a8a}.cls-11,.cls-4{stroke-miterlimit:10;stroke-width:2px}.cls-3{fill:#556a8a}.cls-11,.cls-4{fill:#fff}.cls-4{stroke:#00bcf2}.cls-12{fill:#008272}</style></defs><g id="ICONS"><path d="M142.81 117.84a27.43 27.43 0 010-54.85 26.16 26.16 0 012.87.16 30.78 30.78 0 0143.22-15.58 43.37 43.37 0 0183.57 3.94A33.42 33.42 0 01302 84.56c0 16.11-11.2 30.07-26.63 33.2l-.39.08z" fill="#80def9" opacity=".7"/><path stroke-dasharray="3 3" stroke-miterlimit="10" stroke-width="2" stroke="#556a8a" fill="none" d="M158.67 87.27l39.41-.22 39.64-42.56 78.46-.36"/><path class="cls-3" d="M309.59 52.34l-1.37-1.46 7.19-6.75-7.25-6.68 1.35-1.47 8.84 8.14-8.76 8.22z"/><path class="cls-4" d="M155.51 63.83v-.6a24.19 24.19 0 00-.78-6A21.75 21.75 0 00119 41.78c-5.29-6.66-12-10-21.06-10C82 31.8 70 45.69 69.72 61.34c0 1.08.27 1.89.27 3-8.36 4-13.22 11.06-13.22 20 0 12.73 10 22.92 23.27 23.67 1.22 8.83 9.14 17 22.71 17 11.45 0 18.27.93 26.62-8.47a28.13 28.13 0 0013.31 3.63c16 0 29-14.21 29-30.25a29 29 0 00-16.17-26.09z"/><path d="M101.73 99.37c-.89.29-1.84.56-2.83.83 5.94-24.66 17.65-20.2 17.65-20.2l1.91 1.81.07.23c.41 1.64 2 11.37-16.8 17.33z" fill="#ff9f2b"/><path d="M101.73 99.37c5.81-20.31 15.79-17.66 16.8-17.33.41 1.64 2 11.37-16.8 17.33z" fill="#ff8c00"/><path class="cls-3" d="M119.46 86.7l-8.3-8.3 6.64-1.66 3.11 3.13-1.45 6.83zm1.65-18.39l-22.41-.83-3.32-3.32 19.09-9.13 7.98 3-1.34 10.28zm9.49 6.77l.83 22.42 3.32 3.32 9.13-19.1-2.99-7.98-10.29 1.34z"/><path d="M126.13 85h-.25l-.2-.18-11.83-12.37v-.29a49 49 0 0113.44-23.81c10.79-10.68 35.83-15.18 36.89-15.35l.82-.14-.14.82s-.44 2.61-1.33 6.4c-2.44 10.26-6.81 24-13.77 31C138.91 81.93 127.12 85 126.13 85z" fill="#fff"/><path d="M162.89 41.52c-2 8.35-6.29 22.81-13.62 30.17-10.82 10.9-22.6 13.16-23.21 13.28l-6.6-6.6s2.1-12.12 13.29-23.25c7.35-7.31 21.78-11.62 30.14-13.6z" fill="#e5e5e5"/><path d="M143 39.37l1.07-.39a122.11 122.11 0 0119.75-5.32l1-.17-.17 1a122.35 122.35 0 01-5.32 19.75l-.39 1.07z" fill="#2bc7f4"/><path d="M126.13 85h-.25l-.2-.18-11.83-12.37v-.29a49 49 0 0113.44-23.81c10.79-10.68 35.83-15.18 36.89-15.35l.82-.14-.14.82s-.44 2.61-1.33 6.4c-2.44 10.26-6.81 24-13.77 31C138.91 81.93 127.12 85 126.13 85z" stroke-miterlimit="10" stroke-width="2" stroke="#556a8a" fill="none"/><circle class="cls-11" cx="137.81" cy="59.56" r="6"/><circle class="cls-11" cx="231.39" cy="48.89" r="25"/><circle class="cls-4" cx="231.75" cy="40.41" r="8.44"/><path class="cls-4" d="M218.25 62.34a13.5 13.5 0 1127 0"/><circle class="cls-4" cx="198.08" cy="87.37" r="13"/><path class="cls-12" d="M196.13 78.27h3.9v18.2h-3.9z"/><path class="cls-12" transform="rotate(-90 198.08 87.37)" d="M196.13 78.27h3.9v18.2h-3.9z"/><path class="cls-4" d="M302.43 79.92v-.31a12.41 12.41 0 00-.4-3.08 11.16 11.16 0 00-18.35-7.93 12.92 12.92 0 00-10.81-5.12c-8.17 0-14.33 7.13-14.47 15.16 0 .55.14 1 .14 1.52-4.29 2.08-6.78 5.68-6.78 10.25a12.27 12.27 0 0011.95 12.15c.63 4.53 4.69 8.75 11.65 8.75 5.87 0 9.38.47 13.66-4.35a14.44 14.44 0 006.83 1.86c8.23 0 14.91-7.29 14.91-15.53a14.9 14.9 0 00-8.33-13.37z"/></g></svg>