<svg xmlns="http://www.w3.org/2000/svg" viewBox="0 0 400 140"><defs><style>.cls-1{fill:#e6e7e8;stroke:#fff;stroke-linecap:round;stroke-linejoin:round;stroke-width:.08px}.cls-4{fill-rule:evenodd;fill:#c6df33}.cls-8{stroke:#556a8a;stroke-miterlimit:10;stroke-width:2px}.cls-7{fill:#e5e5e5}.cls-8{fill:none}</style></defs><g id="ICONS"><circle class="cls-1" cx="100" cy="54" r="31"/><circle cx="165" cy="73" r="56.5" fill="#80def9" stroke="#fff" stroke-linecap="round" stroke-linejoin="round" stroke-width=".08"/><circle class="cls-1" cx="283" cy="72" r="31"/><path d="M147.5 81.5a6 6 0 11-6-6 6 6 0 016 6z" fill-rule="evenodd" fill="#f2f2f2"/><path class="cls-4" d="M286 107a12 12 0 11-12-12 11.94 11.94 0 0112 12z"/><path stroke="#556a8a" stroke-miterlimit="10" stroke-width="2" fill="#fff" d="M154 33h117v73H154z"/><path fill="#80def9" d="M163 42h94.4v16H163z"/><path class="cls-7" d="M155 34h14v71h-14zm101 0h14v71h-14z"/><path class="cls-8" d="M176 77h38m-38 8h38m-38 8h38"/><path d="M169 35.83A27.82 27.82 0 11141.17 8 27.69 27.69 0 01169 35.83z" fill="#bad80a" fill-rule="evenodd"/><path class="cls-4" d="M169 35.83a27.69 27.69 0 01-8.29 19.8l-39.35-39.34A27.82 27.82 0 01169 35.83z"/><path d="M129.68 99.5a21.17 21.17 0 11-21.18-21.18 21.07 21.07 0 0121.18 21.18z" fill="#7750a3" fill-rule="evenodd"/><path d="M105 54a12 12 0 11-12-12 11.94 11.94 0 0112 12zm201 48a6 6 0 11-6-6 6 6 0 016 6z" fill="#00bcf2" fill-rule="evenodd"/><path d="M82 32a6 6 0 11-6-6 6 6 0 016 6zm47.68 67.5a21.07 21.07 0 01-6.31 15.06L93.43 84.63a21.17 21.17 0 0136.25 14.87z" fill="#9273b6" fill-rule="evenodd"/><path d="M141.56 52.81v5.13h-2.46V53a14.83 14.83 0 01-8.18-2v-4.14a11.08 11.08 0 003.75 2 13.69 13.69 0 004.43.82V37.59q-5.2-2.5-6.74-4.62a8.27 8.27 0 01-1.54-5 8.36 8.36 0 012.34-5.92 9.69 9.69 0 015.93-3v-4.24h2.46V19q4.63.14 6.4 1.32v4a10.74 10.74 0 00-6.4-2v12.44q4.92 2.34 6.72 4.53a7.59 7.59 0 011.81 5 7.7 7.7 0 01-2.26 5.64 11 11 0 01-6.26 2.88zm-2.46-19.38v-11a5.39 5.39 0 00-3.1 1.75 4.91 4.91 0 00-1.16 3.3 5.52 5.52 0 00.95 3.33 10.17 10.17 0 003.31 2.62zm2.46 5.39V49.5q4.56-1 4.56-4.92 0-3.26-4.56-5.76z" fill="#556a8a"/><path d="M108.84 112.07v3.59h-2v-3.46a11.2 11.2 0 01-6-1.42v-3.69a8.23 8.23 0 002.74 1.47 10 10 0 003.23.6v-7.36q-3.9-1.8-5.05-3.33a5.81 5.81 0 01-1.15-3.61 5.89 5.89 0 011.75-4.26 7.41 7.41 0 014.45-2.16v-3h2v2.91a10.35 10.35 0 014.8.93v3.54a8.42 8.42 0 00-4.8-1.42v7.63a14.79 14.79 0 015 3.28 5.64 5.64 0 01-.33 7.66 8.16 8.16 0 01-4.64 2.1zm-2-14v-6.6a3.47 3.47 0 00-2 1.06 2.84 2.84 0 00-.73 2 3.2 3.2 0 00.6 2 6.41 6.41 0 002.09 1.58zm2 4.58v6.37q2.81-.59 2.81-2.93 0-1.91-2.81-3.4z" fill="#e4edf1"/><path class="cls-7" transform="rotate(-45 266.337 73.99)" d="M244.38 71.99h43.92v3.99h-43.92z"/><path d="M286.45 53.49l-.94-.94a5.34 5.34 0 00-7.53 0l-31 31-4.24 12.71L255.45 92l31-31a5.34 5.34 0 000-7.51z" fill="#fff"/><path d="M255.3 91.25l-.2.19-11.3 3.76 3.76-11.3.2-.18 7.54 7.53zm32.03-33.99a4.63 4.63 0 01-1.36 3.3l-3.1 3.1-7.53-7.53 3.1-3.1A4.68 4.68 0 01285 53l1 1a4.6 4.6 0 011.33 3.26z" fill="#2bc7f4"/><path class="cls-8" d="M286.45 53.49l-.94-.94a5.34 5.34 0 00-7.53 0l-31 31-4.24 12.71L255.45 92l31-31a5.34 5.34 0 000-7.51zM247.7 83.14l7.85 7.86"/><path d="M296.51 88.75a.9.9 0 00.86.54l1.82-.19a.9.9 0 00.68-1l-.06-2.25c-.11-.6 0-1.15 1.72-2.15a1.57 1.57 0 011.55.09l2.16 1.21a1.06 1.06 0 001-.18l1.25-1.58a.94.94 0 00-.31-1.12l-1.7-1.63a1.14 1.14 0 01-.33-1.4s.49-2.27 1.44-2.44l2.09-.49a1.12 1.12 0 00.68-1l-.34-2a.69.69 0 00-.81-.55h-.05l-2.26.07c-.6.09-1.88-1.49-2.15-1.76a2.25 2.25 0 010-1.69l1.21-1.86a1 1 0 00-.18-1.26l-1.58-.94a.9.9 0 00-1.13 0l-1.48 1.86c-.37.45-1.08.88-2.68.23 0 0-1.18-.69-1.32-1.25l-.46-2.36a.9.9 0 00-.86-.54l-2 .34a.69.69 0 00-.51.84l-.07 2.39c0 .84-1.36 1.73-1.64 2a1.48 1.48 0 01-1.69 0l-2-1.34a1.1 1.1 0 00-1.12.31L285 69.37a1.24 1.24 0 00.31 1.12l1.69 1.64c1 .76.41 1.87.21 2.67-.09.43-.26.86-1.24 1l-2.24.63a.9.9 0 00-.54.86l.34 2a.9.9 0 00.72.68l2.39-.2c.84 0 1.14.24 1.29.67a12.6 12.6 0 01.73 1.25 1.26 1.26 0 01.18 1.51l-1.34 2a1.09 1.09 0 00.31 1.11l1.44 1.09a.9.9 0 001.13 0l1.5-1.87a1.43 1.43 0 011.53-.45l1.28.38c.56 0 .86.26 1.15 1.09l.62 2.23m4.57-13.22A5 5 0 01297 81a4.6 4.6 0 01-5.4-3.63q0-.22-.06-.44a4.72 4.72 0 013.93-5.32 4.79 4.79 0 015.6 3.8v.12" fill="#7750a3"/></g></svg>