<svg id="Illustrations" xmlns="http://www.w3.org/2000/svg" viewBox="0 0 400 140"><defs><style>.cls-6{stroke:#556a8a;stroke-miterlimit:10;stroke-width:2px}.cls-2{fill:#80def9;opacity:.7}.cls-3{fill:#556a8a}.cls-6{fill:none}</style></defs><path d="M116.21 115h0z" stroke-miterlimit="10" stroke-width="2" stroke="#556a8a" fill="#fff"/><path class="cls-2" d="M185.9 67.69a39.37 39.37 0 0177.71-1.23 26.79 26.79 0 0143 13.62 23.42 23.42 0 115.56 46.16H180.43C167.06 123.52 157 111.12 157 97a29.27 29.27 0 0128.9-29.31z"/><path class="cls-2" d="M80.75 41.86a33.72 33.72 0 0166.56-1.06 22.95 22.95 0 0136.86 11.66A20.06 20.06 0 11188.93 92H76.07C64.62 89.68 56 79.06 56 66.93a25.07 25.07 0 0124.75-25.07z"/><path class="cls-3" d="M126 21.43h-13.79c-1.36 0-3.21 1.11-3.21 2.47v84c0 5.06 1.35 7.07 5.16 7.07 5.42 0 11.84-9.35 11.84-19.83z"/><path d="M230 17v88.6c0 6.5-2 9.39-9.19 9.39H113c1.21 0 8-.71 8-7.1 0-6.72-.06-75.29 0-90.89z" fill="#e5e5e5"/><path opacity=".8" fill="#fff" d="M230 17v69l-71.52-69H230z"/><path class="cls-6" d="M121 17c-.06 15.6 0 84.17 0 90.89 0 6.39-6.79 7.05-8 7.1h107.81c7.23 0 9.19-2.89 9.19-9.39V17z"/><path transform="rotate(-180 172 63)" fill="none" d="M108-1h128v128H108z"/><path fill="#7750a3" d="M135 32h78v8h-78z"/><path fill="#9273b6" d="M135 74h48v8h-48z"/><path fill="#2bc7f4" d="M135 47h29v20h-29z"/><path fill="#ababab" d="M190 74h23v27h-23z"/><path d="M170 48h42m-41 18h42m-77 24h47m-47 9h47m-13-42h42" stroke="#ababab" fill="none" stroke-miterlimit="10" stroke-width="2"/><path fill="#55d2f6" d="M164 47v17l-17-17h17z"/><path d="M310.65 59.88a16.11 16.11 0 00-2.9-4.86 22.4 22.4 0 00-6.16-5.45V49a18.08 18.08 0 00-18.05-17.8 17.75 17.75 0 00-9.54 2.67 24.17 24.17 0 00-19.4-9.81 23.79 23.79 0 00-23.9 23.41c0 .89.22 1.56.22 2.45C224 53.27 220 59.06 220 66.42c0 10.52 8.27 18.94 19.23 19.56 1 7.3 10.21 13 21.42 13 9.55 0 17.64-4.15 20.45-9.9a22.31 22.31 0 0029.54-29.23z" stroke="#00bcf2" stroke-miterlimit="10" stroke-width="2" fill="#fff"/><path class="cls-3" d="M239.3 72.9h3.41l-.09-18h-3.32c-2.2 0-4.65 4.35-4.62 9s2.42 9.02 4.62 9z"/><path d="M237.26 64c0-5 1.74-9 3.94-9a14 14 0 011.8 0c1.91.67 2.25 4.46 2.27 8.93s.22 8.36-1.72 9c-.17.05-2 0-2.22 0-2.24.07-4.05-3.93-4.07-8.93z" fill="#3a96dd"/><path class="cls-6" d="M261 67.65h-2.7a7.65 7.65 0 100 15.3h2.7a7.65 7.65 0 100-15.3z"/><path d="M281.69 64v-.08c0-8.74 1-15.81 3-19-3.7 1.91-12.29 4.88-22.83 7.61-5 1.3-19.12 3.36-19.17 3.39-1.53 1.53-1.9 5.59-2 7.37v.63c0 1.13.24 6.24 2 8 0 0 14.21 2.09 19.17 3.39 10.54 2.73 19.13 5.7 22.83 7.61-1.6-2.54-2.56-7.62-2.87-14.07-.09-1.53-.13-3.16-.13-4.85z" fill="#e6e6e6"/><path d="M284.67 82.95c-3.7-1.91-12.29-4.88-22.83-7.61-5-1.3-19.12-3.36-19.17-3.39-1.76-1.76-2-8.36-1.65-7.8 0 0 12 1.55 18.65 2.8s22 6 22 6c-.02 5.62 1.4 7.46 3 10z" fill="#f2f2f2"/><path class="cls-6" d="M281.69 63.95c0-8 .83-14.61 2.5-18.08.15-.32-.38 0-.21-.3-.47.24.81-.56.19-.28a168.81 168.81 0 01-22.33 7.31c-5 1.3-19.12 3.36-19.17 3.39-1.76 1.76-2 6.87-2 8s.24 6.24 2 8c.05 0 14.21 2.09 19.17 3.39 10.54 2.73 17.5 5.11 21.2 7-.25-.39 1 .61.75.09-1.52-3.58-2.1-10.83-2.1-18.47z"/><path d="M293.2 64c0 8.33-2.32 15.48-4.24 18.7-.68 1.15-1.45 1.8-2.25 1.8a2.59 2.59 0 01-2-1.36c-1.58-2.27-2.81-7.18-3.29-13.28-.15-1.86-.23-3.82-.23-5.86s.08-4 .23-5.9c.49-6.08 1.71-11 3.29-13.23a2.58 2.58 0 012-1.37c.8 0 1.57.64 2.25 1.81 1.92 3.19 4.24 10.35 4.24 18.69z" fill="#bad80a"/><path class="cls-3" d="M288.67 63.95a6 6 0 01-6 6 6.09 6.09 0 01-1.22-.12c-.15-1.86-.23-3.82-.23-5.86s.08-4 .23-5.9a6.08 6.08 0 011.22-.12 6 6 0 016 6z"/><path class="cls-6" d="M293.2 64c0 8.33-2.32 15.48-4.24 18.7-.68 1.15-1.45 1.8-2.25 1.8a2.57 2.57 0 01-2-1.36c-2.06-3-3.52-10.4-3.52-19.14s1.46-16.17 3.52-19.13a2.59 2.59 0 012-1.37c.8 0 1.57.65 2.25 1.81 1.92 3.18 4.24 10.35 4.24 18.69zm4-.53h23m-22.78-7l19.78-11.74m0 37.48l-19.78-11.74"/></svg>